# xmcd
#
# Track frame offsets:
#	150
#	18905
#	37455
#	54527
#	72445
#	86717
#	106355
#	122327
#	138610
#	155127
#	175482
#	189000
#	205520
#
# Disc length: 2975 seconds
#
# Revision: 2
# Processed by: cddbd v1.4b41PL2 Copyright (c) Steve Scherf et al.
# Submitted via: EZCDDA 4.3.2
#
DISCID=b70b9d0d
DTITLE=Luis Felipe and Cristianno - Sonho Em Preto e Branco
DYEAR=1900
DGENRE=
TTITLE0=Tô Carente
TTITLE1=Só Ela é Capaz de Me Fazer Feliz
TTITLE2=Te Amo, Te Amo, Te Amo
TTITLE3=Notícia de Jornal
TTITLE4=Cunhada Boa
TTITLE5=Te Amo Como Ninguém
TTITLE6=É Tarde Prá Te Amar
TTITLE7=De Segunda a Domingo
TTITLE8=Como Eu Te Amei
TTITLE9=Sonho Em Preto e Branco
TTITLE10=Toca Sanfoneiro
TTITLE11=Aprendi a te Esquecer
TTITLE12=Chama de Amor
EXTD=
EXTT0=
EXTT1=
EXTT2=
EXTT3=
EXTT4=
EXTT5=
EXTT6=
EXTT7=
EXTT8=
EXTT9=
EXTT10=
EXTT11=
EXTT12=
PLAYORDER=
